<?xml version="1.0" standalone="no"?><!DOCTYPE svg PUBLIC "-//W3C//DTD SVG 1.1//EN" "http://www.w3.org/Graphics/SVG/1.1/DTD/svg11.dtd"><svg t="1647834511440" class="icon" viewBox="0 0 1024 1024" version="1.1" xmlns="http://www.w3.org/2000/svg" p-id="5596" xmlns:xlink="http://www.w3.org/1999/xlink" width="32" height="32"><defs><style type="text/css">@font-face { font-family: feedback-iconfont; src: url("//at.alicdn.com/t/font_1031158_u69w8yhxdu.woff2?t=1630033759944") format("woff2"), url("//at.alicdn.com/t/font_1031158_u69w8yhxdu.woff?t=1630033759944") format("woff"), url("//at.alicdn.com/t/font_1031158_u69w8yhxdu.ttf?t=1630033759944") format("truetype"); }
</style></defs><path d="M950.784 442.88c0-243.2-197.12-440.32-440.32-440.32S70.144 199.68 70.144 442.88c0 153.6 78.336 288.256 197.632 367.104L510.464 1016.32l242.688-206.336c118.784-78.848 197.632-214.016 197.632-367.104z" fill="#1C97FB" p-id="5597"></path><path d="M279.04 325.808a16 16 0 0 0-20.736 9.168l-76.576 198.992a16 16 0 0 0 9.152 20.672l276.544 107.232a16 16 0 0 0 18.848-5.68l126.848-179.44a16 16 0 0 0-7.28-24.16l-326.816-126.784z m406.144 213.696a16 16 0 0 0-13.808 10.224l-37.44 97.328a16 16 0 0 0 3.328 16.736l61.44 64.848a6.4 6.4 0 0 0 10.64-2.112l71.04-184.576a6.4 6.4 0 0 0-6.416-8.688l-88.784 6.24z m-60.16-33.488a6.4 6.4 0 0 0-7.552 2.272l-84.496 120.4a6.4 6.4 0 0 0 2.912 9.632l65.792 25.632a6.4 6.4 0 0 0 8.288-3.664l51.264-133.36a6.4 6.4 0 0 0-3.664-8.256l-32.528-12.656zM443.984 342.08a20.864 20.864 0 1 0 38.4 16.32 20.864 20.864 0 0 0-38.4-16.32zM497.392 268.928a88.288 88.288 0 0 0-65.184-1.664 17.12 17.12 0 0 0-9.616 8.976 16.8 16.8 0 0 0-0.272 13.152 17.488 17.488 0 0 0 9.248 9.616 17.792 17.792 0 0 0 13.344 0.464 54.432 54.432 0 0 1 38.848 1.472c12.384 5.28 22.4 14.88 28.032 26.96a17.536 17.536 0 0 0 9.584 9.296 17.792 17.792 0 0 0 13.328 0 17.088 17.088 0 0 0 9.28-9.328 16.864 16.864 0 0 0-0.192-13.152 88.288 88.288 0 0 0-46.4-45.792z m33.504-78.8a159.984 159.984 0 0 0-61.312-12.72 157.376 157.376 0 0 0-61.136 11.824 17.28 17.28 0 0 0-9.28 9.504 17.04 17.04 0 0 0 0.32 13.312 17.872 17.872 0 0 0 23.264 9.136 122.4 122.4 0 0 1 47.632-9.232 124.448 124.448 0 0 1 88.048 37.44 122.4 122.4 0 0 1 26.4 40.72 17.504 17.504 0 0 0 9.392 9.584c3.152 1.312 6.608 1.712 9.952 1.12 3.344-0.592 6.416-2.128 8.848-4.448a16.8 16.8 0 0 0 4.112-18.4 157.36 157.36 0 0 0-34.144-52.48 159.984 159.984 0 0 0-52.096-35.36z" fill="#FFFFFF" p-id="5598"></path></svg>