<?xml version="1.0" standalone="no"?><!DOCTYPE svg PUBLIC "-//W3C//DTD SVG 1.1//EN" "http://www.w3.org/Graphics/SVG/1.1/DTD/svg11.dtd"><svg t="1647835028461" class="icon" viewBox="0 0 1024 1024" version="1.1" xmlns="http://www.w3.org/2000/svg" p-id="11960" xmlns:xlink="http://www.w3.org/1999/xlink" width="32" height="32"><defs><style type="text/css">@font-face { font-family: feedback-iconfont; src: url("//at.alicdn.com/t/font_1031158_u69w8yhxdu.woff2?t=1630033759944") format("woff2"), url("//at.alicdn.com/t/font_1031158_u69w8yhxdu.woff?t=1630033759944") format("woff"), url("//at.alicdn.com/t/font_1031158_u69w8yhxdu.ttf?t=1630033759944") format("truetype"); }
</style></defs><path d="M940.366534 330.454183C891.410359 130.549801 715.984064 0 512 0 267.219124 0 75.474104 199.904382 67.314741 436.525896c0 199.904382 130.549801 375.330677 330.454183 432.446216 57.115538 32.63745 97.912351 89.752988 118.310757 155.027888 24.478088-61.195219 61.195219-118.310757 118.310757-155.027888 228.462151-69.354582 363.091633-310.055777 305.976096-538.517929z" fill="#ea986c" p-id="11961" data-spm-anchor-id="a313x.7781069.0.i2" class="selected"></path><path d="M422.247012 322.294821h32.63745l8.159363-146.868526h28.557769V285.577689c0 20.398406 4.079681 40.796813-4.079682 57.115538-8.159363 24.478088-28.557769 44.876494-53.035856 48.956175v318.21514c-20.398406 16.318725-28.557769 16.318725-48.956176 0V395.729084l-20.398406-8.159363c-12.239044-8.159363-24.478088-12.239044-28.557769-24.478088-8.159363-16.318725-8.159363-40.796813-8.159362-65.2749v-122.390438h24.478087l12.239044 146.868526h28.557769l4.079681-146.868526h24.478088v146.868526z m138.709163-155.027889c12.239044 0 65.2749-4.079681 69.354582 0 12.239044 12.239044 20.398406 28.557769 28.557769 44.876494 16.318725 28.557769 28.557769 65.2749 36.717131 101.992032v73.434263c-4.079681 16.318725-4.079681 32.63745-8.159362 48.956175h-61.195219V734.342629h-69.354582l4.079681-567.075697z" fill="#FFFFFF" p-id="11962"></path></svg>