<?xml version="1.0" standalone="no"?><!DOCTYPE svg PUBLIC "-//W3C//DTD SVG 1.1//EN" "http://www.w3.org/Graphics/SVG/1.1/DTD/svg11.dtd"><svg t="1647835539355" class="icon" viewBox="0 0 1024 1024" version="1.1" xmlns="http://www.w3.org/2000/svg" p-id="12671" xmlns:xlink="http://www.w3.org/1999/xlink" width="32" height="32"><defs><style type="text/css">@font-face { font-family: feedback-iconfont; src: url("//at.alicdn.com/t/font_1031158_u69w8yhxdu.woff2?t=1630033759944") format("woff2"), url("//at.alicdn.com/t/font_1031158_u69w8yhxdu.woff?t=1630033759944") format("woff"), url("//at.alicdn.com/t/font_1031158_u69w8yhxdu.ttf?t=1630033759944") format("truetype"); }
</style></defs><path d="M512.08048 0c247.424 0 448 202.784 448 452.928 0 125.056-50.144 238.272-131.2 320.256l-11.136 10.976c-46.848 45.44-122.432 108.416-226.816 188.928l-46.688 35.712-3.712 2.464a34.88 34.88 0 0 1-33.248 0.8l-3.84-2.24-22.496-15.52c-141.248-97.696-236.48-171.392-285.632-221.12A453.984 453.984 0 0 1 64.08048 452.928C64.08048 202.784 264.65648 0 512.08048 0z" fill="#FFFFFF" p-id="12672"></path><path d="M512.08048 32C282.41648 32 96.08048 220.384 96.08048 452.928c0 113.248 44.384 219.296 121.952 297.76l10.112 9.92c50.048 47.808 140.608 117.184 271.008 207.36l22.4 15.424 1.28 0.64c0.32 0.16 0.416 0.32 0 0.576l2.048-1.28 33.312-25.408 38.336-29.664c90.464-70.464 156.8-126.176 198.72-166.848l10.88-10.72A421.952 421.952 0 0 0 928.08048 452.928C928.08048 220.384 741.74448 32 512.08048 32z" fill="#65CE65" p-id="12673"></path><path d="M382.73648 512v42.656h-44.16l-15.232 106.688h377.472l-15.232-106.688h-44.16V512h81.152l27.424 192H274.16048l27.424-192h81.152z m150.688-128v42.656h85.312v42.688l-21.312-0.032V576h-64v64h-42.688v-64h-64v-106.688h-21.312v-42.656h85.312V384h42.688z m-118.4-62.944l-4.96 41.6H353.77648a12 12 0 0 1-11.584-15.136l7.2-26.464h65.632z m87.232 0v41.6h-71.68l4.992-41.6h66.688z m87.264 0l4.96 41.6h-71.68v-41.6h66.72z m83.328 0l8.8 25.728a12 12 0 0 1-11.36 15.872h-55.264l-4.992-41.6h62.816z m-250.112-64.544l-5.12 43.04H355.21648l11.744-43.04h55.744z m79.52 0v43.04H438.16048l5.12-43.04h59.008z m79.552 0l5.152 43.04h-64.16V256.512h59.008z m69.056 0l14.656 43.04h-58.048l-5.12-43.04h48.512zM620.30448 192c5.12 0 9.696 3.264 11.36 8.128l11.84 34.88H599.76048L594.64048 192h25.664z m-189.856 0l-5.12 43.008h-52.48l9.344-34.176A12 12 0 0 1 393.77648 192h36.672z m71.84 0v43.008H445.84048L450.96048 192h51.328z m71.84 0l5.12 43.008h-56.448V192h51.328z" fill="#FFFEFF" p-id="12674"></path></svg>