<?xml version="1.0" standalone="no"?><!DOCTYPE svg PUBLIC "-//W3C//DTD SVG 1.1//EN" "http://www.w3.org/Graphics/SVG/1.1/DTD/svg11.dtd"><svg t="1647855396590" class="icon" viewBox="0 0 1024 1024" version="1.1" xmlns="http://www.w3.org/2000/svg" p-id="11335" xmlns:xlink="http://www.w3.org/1999/xlink" width="32" height="32"><defs><style type="text/css">@font-face { font-family: feedback-iconfont; src: url("//at.alicdn.com/t/font_1031158_u69w8yhxdu.woff2?t=1630033759944") format("woff2"), url("//at.alicdn.com/t/font_1031158_u69w8yhxdu.woff?t=1630033759944") format("woff"), url("//at.alicdn.com/t/font_1031158_u69w8yhxdu.ttf?t=1630033759944") format("truetype"); }
</style></defs><path d="M375.125333 935.936a142.677333 43.349333 0 1 0 285.354667 0 142.677333 43.349333 0 1 0-285.354667 0Z" opacity=".2" p-id="11336"></path><path d="M517.802667 910.336c54.954667 0 99.669333 11.264 99.669333 25.6s-44.714667 25.941333-99.669333 25.941333-100.010667-11.605333-100.010667-25.941333 44.714667-25.6 100.010667-25.6z" opacity=".5" p-id="11337"></path><path d="M258.389333 136.533333a375.466667 375.466667 0 0 0-11.605333 533.162667l273.066667 273.066667L779.946667 682.666667A377.173333 377.173333 0 0 0 785.066667 147.797333 375.466667 375.466667 0 0 0 258.389333 136.533333z" fill="#707EDF" p-id="11338"></path><path d="M746.496 648.533333a330.752 330.752 0 1 1 10.24-467.626666 330.752 330.752 0 0 1-10.24 467.626666z" fill="#FFFFFF" p-id="11339"></path><path d="M358.058667 512a15.018667 15.018667 0 0 0 15.018666-15.018667v-47.445333a15.36 15.36 0 0 0-15.36-15.36 15.36 15.36 0 0 0-15.018666 15.36v45.738667a15.36 15.36 0 0 0 15.36 16.725333z" fill="#707EDF" p-id="11340"></path><path d="M553.301333 396.970667a34.133333 34.133333 0 0 0 32.085334-34.133334 34.133333 34.133333 0 0 0-32.085334-34.133333 34.133333 34.133333 0 0 0-34.133333 32.085333 34.133333 34.133333 0 0 0 31.744 34.133334h2.389333z" fill="#707EDF" p-id="11341"></path><path d="M692.906667 571.392h-18.090667V267.264a41.984 41.984 0 0 0-40.618667-40.96h-163.84a41.984 41.984 0 0 0-38.570666 43.349333v42.325334h-73.728a15.36 15.36 0 0 0-15.36 15.36v45.397333a15.36 15.36 0 0 0 15.36 15.36 15.36 15.36 0 0 0 15.36-15.36V341.333333h58.368v229.034667h-88.746667a15.36 15.36 0 1 0 0 30.378667H692.906667a15.36 15.36 0 0 0 15.36-15.018667 15.36 15.36 0 0 0-15.36-15.018667zM553.301333 307.2a58.026667 58.026667 0 0 1 57.685334 58.026667 58.026667 58.026667 0 0 1-57.685334 57.685333 57.344 57.344 0 0 1-57.685333-58.026667A57.685333 57.685333 0 0 1 553.301333 307.2z m45.397334 255.317333h-91.136a15.36 15.36 0 1 1 0-30.378666h91.136a15.36 15.36 0 1 1 0 30.378666z" fill="#707EDF" p-id="11342"></path></svg>