<?xml version="1.0" standalone="no"?><!DOCTYPE svg PUBLIC "-//W3C//DTD SVG 1.1//EN" "http://www.w3.org/Graphics/SVG/1.1/DTD/svg11.dtd"><svg t="1647834813537" class="icon" viewBox="0 0 1024 1024" version="1.1" xmlns="http://www.w3.org/2000/svg" p-id="8552" xmlns:xlink="http://www.w3.org/1999/xlink" width="32" height="32"><defs><style type="text/css">@font-face { font-family: feedback-iconfont; src: url("//at.alicdn.com/t/font_1031158_u69w8yhxdu.woff2?t=1630033759944") format("woff2"), url("//at.alicdn.com/t/font_1031158_u69w8yhxdu.woff?t=1630033759944") format("woff"), url("//at.alicdn.com/t/font_1031158_u69w8yhxdu.ttf?t=1630033759944") format("truetype"); }
</style></defs><path d="M374.101333 935.936a142.677333 43.349333 0 1 0 285.354667 0 142.677333 43.349333 0 1 0-285.354667 0Z" opacity=".2" p-id="8553"></path><path d="M517.12 910.336c54.954667 0 99.669333 11.264 99.669333 25.6s-44.714667 25.941333-99.669333 25.941333-100.010667-11.605333-100.010667-25.941333 44.714667-25.6 100.010667-25.6z" opacity=".5" p-id="8554"></path><path d="M257.706667 136.533333a375.466667 375.466667 0 0 0-11.605334 533.162667l273.066667 273.066667L779.264 682.666667A375.466667 375.466667 0 0 0 785.066667 147.797333 375.466667 375.466667 0 0 0 257.706667 136.533333z" fill="#4FBF84" p-id="8555"></path><path d="M745.472 648.533333a330.752 330.752 0 1 1 10.581333-467.626666 330.069333 330.069333 0 0 1-10.581333 467.626666z" fill="#FFFFFF" p-id="8556"></path><path d="M480.938667 407.210667a5.802667 5.802667 0 0 0-5.802667 5.802666 5.461333 5.461333 0 0 0 5.802667 5.802667 5.802667 5.802667 0 0 0 5.802666-5.802667 6.144 6.144 0 0 0-5.802666-5.802666z" fill="#4FBF84" p-id="8557"></path><path d="M409.6 303.786667v-18.090667h11.946667v18.090667h197.632V256h-35.157334v10.24l-30.037333 13.653333 8.533333-26.965333-8.533333-27.306667 30.037333 13.653334v10.24h77.824V238.933333l23.893334 15.018667-23.893334 15.018667v-13.312h-30.037333v47.786666" fill="#4FBF84" p-id="8558"></path><path d="M395.264 261.802667h35.84v17.749333h-35.84z" fill="#4FBF84" p-id="8559"></path><path d="M452.949333 267.264a21.162667 21.162667 0 0 1-18.432-11.264h-18.432a26.282667 26.282667 0 0 1-12.970666 5.802667 17.749333 17.749333 0 0 1 0-5.802667h-9.557334a20.821333 20.821333 0 1 1-37.888-17.066667 20.821333 20.821333 0 0 1 39.253334 6.485334h7.168v-10.922667a15.36 15.36 0 0 1 16.725333 10.922667h12.970667a21.162667 21.162667 0 0 1 23.210666-18.090667 20.821333 20.821333 0 0 1-2.730666 41.642667z" fill="#4FBF84" p-id="8560"></path><path d="M501.76 352.597333h30.378667v30.378667h-30.378667z" fill="#4FBF84" p-id="8561"></path><path d="M501.76 519.509333h30.378667v117.077334h-30.378667z" fill="#4FBF84" p-id="8562"></path><path d="M323.925333 302.08m14.677334 0l356.693333 0q14.677333 0 14.677333 14.677333l0 6.485334q0 14.677333-14.677333 14.677333l-356.693333 0q-14.677333 0-14.677334-14.677333l0-6.485334q0-14.677333 14.677334-14.677333Z" fill="#4FBF84" p-id="8563"></path><path d="M503.125333 394.922667h-102.4v108.885333h235.178667v-108.544z m-22.186666 30.378666a11.605333 11.605333 0 1 1 0-23.210666 11.605333 11.605333 0 1 1 0 23.210666z m48.469333 68.266667a40.96 40.96 0 0 1-37.888-44.032 40.96 40.96 0 0 1 37.888-37.888 37.888 37.888 0 0 1 34.133333 23.552h-13.312a26.282667 26.282667 0 0 0-21.162666-11.946667 29.696 29.696 0 0 0-26.282667 32.426667 29.354667 29.354667 0 0 0 26.282667 26.282667 26.282667 26.282667 0 0 0 24.234666-17.749334h12.629334a38.912 38.912 0 0 1-36.864 29.354667z" fill="#4FBF84" p-id="8564"></path></svg>